<?xml version="1.0" encoding="utf-8"?>
<!-- Generator: Adobe Illustrator 22.0.1, SVG Export Plug-In . SVG Version: 6.00 Build 0)  -->
<svg version="1.1" xmlns="http://www.w3.org/2000/svg" xmlns:xlink="http://www.w3.org/1999/xlink" x="0px" y="0px"
	 viewBox="0 0 34.1 25.3" style="enable-background:new 0 0 34.1 25.3;" xml:space="preserve">
<g id="Слой_2">
</g>
<g id="Слой_1">
	<g>
		<g>
			<path d="M18.2-0.1l-0.5,4.6c-0.1,0-0.2,0-0.3,0c-0.2,0-0.4,0-0.6,0c-0.1,0-0.2,0-0.3,0l-0.2-4.6H18.2z"/>
		</g>
		<g>
			<path d="M32.7,9.6l-4.2,1.9c-0.2-0.4-0.4-0.7-0.6-1.1L31.8,8C32.1,8.4,32.4,9,32.7,9.6z"/>
		</g>
		<g>
			<path d="M26.8,2.9l-2.7,3.8C23.7,6.4,23.4,6.2,23,6l2.1-4.1C25.7,2.1,26.2,2.5,26.8,2.9z"/>
		</g>
		<g>
			<path d="M11.2,5.8c-0.3,0.2-0.7,0.4-1.1,0.6L7.6,2.6C8,2.3,8.6,2,9.2,1.7L11.2,5.8z"/>
		</g>
		<g>
			<path d="M6.3,10.1c-0.3,0.4-0.5,0.8-0.7,1.2L1.5,9.1c0.3-0.5,0.6-1,1-1.6L6.3,10.1z"/>
		</g>
		<g>
			<path d="M26.2,15.1l0-0.2c-1.1-4.2-4.9-7.1-9.3-7.1c-4.4,0-8.2,2.9-9.3,7.1l0,0.2H0v1.7h34.2v-1.7H26.2z M9.4,15.1l0.1-0.3
				c1-3.3,4.1-5.4,7.5-5.4c3.5,0,6.5,2.2,7.5,5.4l0.1,0.3H9.4z"/>
		</g>
	</g>
	<g>
	</g>
	<g>
		<path d="M2.4,19.6v1H1.9v3.6h0.5v1H0.2v-1h0.5v-3.6H0.2v-1H2.4z"/>
		<path d="M7.4,20.7H5.8v4.6H4.5v-4.6H3v-1h4.5V20.7z"/>
		<path d="M14.9,25c-0.4,0.2-0.9,0.3-1.6,0.3c-0.9,0-1.5-0.3-2-0.8s-0.7-1.2-0.7-2c0-0.9,0.3-1.6,0.8-2.2s1.3-0.8,2.2-0.8
			c0.5,0,1,0.1,1.4,0.2V21c-0.4-0.2-0.8-0.3-1.3-0.3c-0.5,0-0.9,0.2-1.3,0.5c-0.3,0.3-0.5,0.8-0.5,1.3c0,0.5,0.2,1,0.5,1.3
			c0.3,0.3,0.7,0.5,1.2,0.5c0.5,0,0.9-0.1,1.4-0.4V25z"/>
		<path d="M21.1,25.2h-1.4L19.4,24h-2L17,25.2h-1.4l2-5.6h1.5L21.1,25.2z M19.1,23l-0.6-1.9c0-0.1-0.1-0.3-0.1-0.5h0
			c0,0.2,0,0.3-0.1,0.5L17.6,23H19.1z"/>
		<path d="M28.5,25.2h-1.2v-3.4c0-0.4,0-0.8,0-1.2h0c-0.1,0.3-0.1,0.6-0.2,0.7l-1.3,3.8h-1l-1.3-3.8c0-0.1-0.1-0.4-0.2-0.8h0
			c0,0.6,0.1,1,0.1,1.5v3.1h-1.1v-5.6H24l1.1,3.3c0.1,0.3,0.2,0.5,0.2,0.8h0c0.1-0.3,0.1-0.6,0.2-0.8l1.1-3.3h1.8V25.2z"/>
		<path d="M31.3,23.3v1.9H30v-5.6h2c1.4,0,2.1,0.6,2.1,1.8c0,0.6-0.2,1-0.6,1.4s-0.9,0.5-1.6,0.5H31.3z M31.3,20.6v1.7h0.5
			c0.7,0,1-0.3,1-0.9c0-0.6-0.3-0.9-1-0.9H31.3z"/>
	</g>
</g>
</svg>
